<svg width="27" height="27" viewBox="0 0 27 27" fill="none" xmlns="http://www.w3.org/2000/svg">
<path d="M24.9118 15.2822H5.82969L14.1664 23.6223C14.8326 24.2889 14.8326 25.3826 14.1664 26.0492C13.5001 26.7157 12.4239 26.7157 11.7576 26.0492L0.499689 14.7865C-0.166561 14.12 -0.166561 13.0433 0.499689 12.3768L11.7405 1.09704C12.0597 0.777016 12.493 0.597168 12.9449 0.597168C13.3968 0.597168 13.8301 0.777016 14.1493 1.09704C14.8155 1.76357 14.8155 2.84027 14.1493 3.5068L5.82969 11.8641H24.9118C25.8514 11.8641 26.6201 12.6331 26.6201 13.5731C26.6201 14.5131 25.8514 15.2822 24.9118 15.2822Z" fill="#3EC7B5"/>
</svg>
