<svg width="23" height="20" viewBox="0 0 23 20" fill="none" xmlns="http://www.w3.org/2000/svg">
<path d="M4.99166 10.8333H15.6962L11.0196 14.9C10.6458 15.225 10.6458 15.7583 11.0196 16.0833C11.3933 16.4083 11.9971 16.4083 12.3708 16.0833L18.6862 10.5917C19.06 10.2667 19.06 9.74165 18.6862 9.41665L12.3804 3.91665C12.2014 3.76061 11.9583 3.67291 11.7048 3.67291C11.4513 3.67291 11.2082 3.76061 11.0292 3.91665C10.6554 4.24165 10.6554 4.76665 11.0292 5.09165L15.6962 9.16665H4.99166C4.46458 9.16665 4.03333 9.54165 4.03333 9.99998C4.03333 10.4583 4.46458 10.8333 4.99166 10.8333Z" fill="#3EC7B5"/>
</svg>
