<svg width="27" height="27" viewBox="0 0 27 27" fill="none" xmlns="http://www.w3.org/2000/svg">
<path d="M1.70833 15.2822H20.7904L12.4538 23.6223C11.7875 24.2889 11.7875 25.3826 12.4538 26.0492C13.12 26.7157 14.1963 26.7157 14.8625 26.0492L26.1204 14.7865C26.7867 14.12 26.7867 13.0433 26.1204 12.3768L14.8796 1.09704C14.5604 0.777016 14.1271 0.597168 13.6752 0.597168C13.2233 0.597168 12.79 0.777016 12.4708 1.09704C11.8046 1.76357 11.8046 2.84027 12.4708 3.5068L20.7904 11.8641H1.70833C0.76875 11.8641 0 12.6331 0 13.5731C0 14.5131 0.76875 15.2822 1.70833 15.2822Z" fill="#3EC7B5"/>
</svg>
