<svg width="78" height="22" viewBox="0 0 78 22" fill="none" xmlns="http://www.w3.org/2000/svg">
<path d="M9.38477 4.62207V7.28613H0.151367V4.62207H9.38477ZM2.81543 0.61084H6.46338V16.4741C6.46338 16.9787 6.53402 17.3672 6.67529 17.6396C6.82666 17.902 7.03353 18.0786 7.2959 18.1694C7.55827 18.2603 7.86605 18.3057 8.21924 18.3057C8.47152 18.3057 8.7137 18.2905 8.9458 18.2603C9.1779 18.23 9.36458 18.1997 9.50586 18.1694L9.521 20.9546C9.21826 21.0454 8.86507 21.1261 8.46143 21.1968C8.06787 21.2674 7.61377 21.3027 7.09912 21.3027C6.26156 21.3027 5.51986 21.1564 4.87402 20.8638C4.22819 20.561 3.72363 20.0716 3.36035 19.3955C2.99707 18.7194 2.81543 17.8213 2.81543 16.7012V0.61084ZM19.5704 21.3027C18.3595 21.3027 17.2646 21.106 16.2857 20.7124C15.317 20.3088 14.4895 19.7487 13.8033 19.0322C13.1272 18.3158 12.6075 17.4731 12.2442 16.5044C11.881 15.5356 11.6993 14.4912 11.6993 13.3711V12.7656C11.6993 11.484 11.886 10.3236 12.2594 9.28418C12.6327 8.24479 13.1524 7.35677 13.8185 6.62012C14.4845 5.87337 15.2716 5.30322 16.1798 4.90967C17.088 4.51611 18.0719 4.31934 19.1314 4.31934C20.302 4.31934 21.3263 4.51611 22.2042 4.90967C23.0821 5.30322 23.8087 5.85824 24.3839 6.57471C24.9692 7.28109 25.4031 8.1237 25.6856 9.10254C25.9783 10.0814 26.1246 11.1611 26.1246 12.3418V13.9009H13.4703V11.2822H22.5221V10.9946C22.5019 10.3387 22.3707 9.72314 22.1285 9.14795C21.8964 8.57275 21.5382 8.10856 21.0538 7.75537C20.5694 7.40218 19.9236 7.22559 19.1163 7.22559C18.5108 7.22559 17.971 7.35677 17.4967 7.61914C17.0325 7.87142 16.644 8.23975 16.3312 8.72412C16.0183 9.2085 15.7761 9.79378 15.6046 10.48C15.4431 11.1561 15.3624 11.918 15.3624 12.7656V13.3711C15.3624 14.0876 15.4583 14.7536 15.65 15.3691C15.8518 15.9746 16.1445 16.5044 16.5279 16.9585C16.9114 17.4126 17.3756 17.7708 17.9205 18.0332C18.4654 18.2855 19.086 18.4116 19.7823 18.4116C20.6603 18.4116 21.4423 18.235 22.1285 17.8818C22.8147 17.5286 23.4101 17.0291 23.9146 16.3833L25.837 18.2451C25.4838 18.7598 25.0247 19.2542 24.4596 19.7285C23.8945 20.1927 23.2032 20.5711 22.3858 20.8638C21.5785 21.1564 20.6401 21.3027 19.5704 21.3027ZM38.3537 17.7153V9.90479C38.3537 9.3195 38.2478 8.81494 38.0358 8.39111C37.8239 7.96729 37.501 7.63932 37.0671 7.40723C36.6433 7.17513 36.1084 7.05908 35.4626 7.05908C34.8672 7.05908 34.3526 7.15999 33.9187 7.36182C33.4847 7.56364 33.1467 7.8361 32.9045 8.1792C32.6623 8.5223 32.5412 8.91081 32.5412 9.34473H28.9084C28.9084 8.69889 29.0648 8.07324 29.3776 7.46777C29.6905 6.8623 30.1446 6.32243 30.7399 5.84814C31.3353 5.37386 32.0467 5.00049 32.8742 4.72803C33.7017 4.45557 34.6301 4.31934 35.6594 4.31934C36.8905 4.31934 37.9803 4.5262 38.9289 4.93994C39.8876 5.35368 40.6394 5.97933 41.1843 6.81689C41.7393 7.64437 42.0168 8.68376 42.0168 9.93506V17.2158C42.0168 17.9626 42.0673 18.6336 42.1682 19.229C42.2792 19.8143 42.4356 20.3239 42.6374 20.7578V21H38.8986C38.7271 20.6064 38.5909 20.1069 38.4899 19.5015C38.3991 18.8859 38.3537 18.2905 38.3537 17.7153ZM38.8835 11.04L38.9138 13.2954H36.2951C35.619 13.2954 35.0236 13.361 34.509 13.4922C33.9943 13.6133 33.5655 13.7949 33.2224 14.0371C32.8793 14.2793 32.6219 14.5719 32.4504 14.915C32.2788 15.2581 32.1931 15.6466 32.1931 16.0806C32.1931 16.5145 32.294 16.9131 32.4958 17.2764C32.6976 17.6296 32.9903 17.9071 33.3737 18.1089C33.7673 18.3107 34.2416 18.4116 34.7966 18.4116C35.5433 18.4116 36.1942 18.2603 36.7492 17.9575C37.3143 17.6447 37.7583 17.2663 38.0812 16.8223C38.4042 16.3682 38.5757 15.9393 38.5959 15.5356L39.7766 17.1553C39.6555 17.569 39.4486 18.013 39.156 18.4873C38.8633 18.9616 38.4798 19.4157 38.0056 19.8496C37.5414 20.2734 36.9813 20.6216 36.3254 20.894C35.6796 21.1665 34.9328 21.3027 34.0852 21.3027C33.0155 21.3027 32.0619 21.0908 31.2243 20.667C30.3868 20.2331 29.7308 19.6528 29.2565 18.9263C28.7823 18.1896 28.5451 17.3571 28.5451 16.4287C28.5451 15.5609 28.7066 14.7939 29.0295 14.1279C29.3625 13.4518 29.8469 12.8867 30.4826 12.4326C31.1284 11.9785 31.9156 11.6354 32.8439 11.4033C33.7723 11.1611 34.8319 11.04 36.0227 11.04H38.8835ZM49.6292 7.95215V21H45.9813V4.62207H49.4173L49.6292 7.95215ZM49.0389 12.2056L47.7977 12.1904C47.7977 11.0602 47.9389 10.0158 48.2215 9.05713C48.504 8.09847 48.9178 7.26595 49.4627 6.55957C50.0076 5.8431 50.6837 5.29313 51.491 4.90967C52.3084 4.51611 53.2519 4.31934 54.3216 4.31934C55.0683 4.31934 55.7495 4.43034 56.365 4.65234C56.9907 4.86426 57.5306 5.20231 57.9847 5.6665C58.4489 6.1307 58.8021 6.72607 59.0442 7.45264C59.2965 8.1792 59.4227 9.05713 59.4227 10.0864V21H55.7747V10.4043C55.7747 9.6071 55.6536 8.98145 55.4114 8.52734C55.1793 8.07324 54.8413 7.75033 54.3973 7.55859C53.9633 7.35677 53.4437 7.25586 52.8382 7.25586C52.152 7.25586 51.5667 7.38704 51.0823 7.64941C50.608 7.91178 50.2195 8.27002 49.9168 8.72412C49.6141 9.17822 49.3921 9.70296 49.2508 10.2983C49.1095 10.8937 49.0389 11.5295 49.0389 12.2056ZM59.1956 11.2368L57.4852 11.6152C57.4852 10.6263 57.6214 9.69287 57.8938 8.81494C58.1764 7.92692 58.5851 7.1499 59.1199 6.48389C59.6648 5.80778 60.3359 5.27799 61.1331 4.89453C61.9303 4.51107 62.8436 4.31934 63.8729 4.31934C64.7104 4.31934 65.4572 4.43538 66.1131 4.66748C66.7791 4.88949 67.3442 5.24268 67.8084 5.72705C68.2726 6.21143 68.6258 6.84212 68.868 7.61914C69.1102 8.38607 69.2313 9.31445 69.2313 10.4043V21H65.5682V10.3892C65.5682 9.56169 65.4471 8.9209 65.2049 8.4668C64.9728 8.0127 64.6398 7.69987 64.2059 7.52832C63.7719 7.34668 63.2522 7.25586 62.6468 7.25586C62.0817 7.25586 61.5822 7.36182 61.1482 7.57373C60.7244 7.77555 60.3662 8.06315 60.0735 8.43652C59.7809 8.7998 59.5589 9.21859 59.4075 9.69287C59.2662 10.1672 59.1956 10.6818 59.1956 11.2368Z" fill="#FFF0DA"/>
<path d="M73.2865 19.1836C73.2865 18.6185 73.4783 18.1442 73.8617 17.7607C74.2452 17.3672 74.7649 17.1704 75.4208 17.1704C76.0868 17.1704 76.6065 17.3672 76.9799 17.7607C77.3633 18.1442 77.5551 18.6185 77.5551 19.1836C77.5551 19.7487 77.3633 20.223 76.9799 20.6064C76.6065 20.9899 76.0868 21.1816 75.4208 21.1816C74.7649 21.1816 74.2452 20.9899 73.8617 20.6064C73.4783 20.223 73.2865 19.7487 73.2865 19.1836Z" fill="#47B7D8"/>
</svg>
