<svg width="123" height="24" viewBox="0 0 123 24" fill="none" xmlns="http://www.w3.org/2000/svg">
<g clip-path="url(#clip0_1_7619)">
<path d="M12.6231 17.5196L16.8333 20.0296C17.6043 20.4896 18.5477 19.8096 18.3448 18.9496L17.2289 14.2296L20.9521 11.0496C21.6318 10.4696 21.2666 9.36964 20.3738 9.29964L15.4738 8.88964L13.5564 4.42964C13.2115 3.61964 12.0347 3.61964 11.6898 4.42964L9.77239 8.87964L4.87239 9.28964C3.97963 9.35964 3.61441 10.4596 4.29412 11.0396L8.01731 14.2196L6.90137 18.9396C6.69847 19.7996 7.64195 20.4796 8.41296 20.0196L12.6231 17.5196Z" fill="#FFD012"/>
<path d="M85.6666 17.5196L89.8767 20.0296C90.6477 20.4896 91.5912 19.8096 91.3883 18.9496L90.2724 14.2296L93.9956 11.0496C94.6753 10.4696 94.31 9.36964 93.4173 9.29964L88.5173 8.88964L86.5999 4.42964C86.255 3.61964 85.0782 3.61964 84.7332 4.42964L82.8158 8.87964L77.9158 9.28964C77.0231 9.35964 76.6579 10.4596 77.3376 11.0396L81.0608 14.2196L79.9448 18.9396C79.7419 19.7996 80.6854 20.4796 81.4564 20.0196L85.6666 17.5196Z" fill="#FFD012"/>
<path d="M61.3188 17.5196L65.5289 20.0296C66.2999 20.4896 67.2434 19.8096 67.0405 18.9496L65.9246 14.2296L69.6478 11.0496C70.3275 10.4696 69.9623 9.36964 69.0695 9.29964L64.1695 8.88964L62.2521 4.42964C61.9072 3.61964 60.7304 3.61964 60.3855 4.42964L58.4681 8.87964L53.5681 9.28964C52.6753 9.35964 52.3101 10.4596 52.9898 11.0396L56.713 14.2196L55.597 18.9396C55.3942 19.7996 56.3376 20.4796 57.1086 20.0196L61.3188 17.5196Z" fill="#FFD012"/>
<path d="M36.971 17.5196L41.1812 20.0296C41.9522 20.4896 42.8956 19.8096 42.6927 18.9496L41.5768 14.2296L45.3 11.0496C45.9797 10.4696 45.6145 9.36964 44.7217 9.29964L39.8217 8.88964L37.9043 4.42964C37.5594 3.61964 36.3826 3.61964 36.0377 4.42964L34.1203 8.87964L29.2203 9.28964C28.3275 9.35964 27.9623 10.4596 28.642 11.0396L32.3652 14.2196L31.2493 18.9396C31.0464 19.7996 31.9899 20.4796 32.7609 20.0196L36.971 17.5196Z" fill="#FFD012"/>
<path d="M110.014 17.5196L114.225 20.0296C114.996 20.4896 115.939 19.8096 115.736 18.9496L114.62 14.2296L118.343 11.0496C119.023 10.4696 118.658 9.36964 117.765 9.29964L112.865 8.88964L110.948 4.42964C110.603 3.61964 109.426 3.61964 109.081 4.42964L107.164 8.87964L102.264 9.28964C101.371 9.35964 101.006 10.4596 101.685 11.0396L105.409 14.2196L104.293 18.9396C104.09 19.7996 105.033 20.4796 105.804 20.0196L110.014 17.5196Z" fill="#FFD012"/>
</g>
<defs>
<clipPath id="clip0_1_7619">
<rect width="121.739" height="24" fill="white" transform="translate(0.449219)"/>
</clipPath>
</defs>
</svg>
